<svg width="88" height="84" viewBox="0 0 88 84" fill="none" xmlns="http://www.w3.org/2000/svg">
<path fill-rule="evenodd" clip-rule="evenodd" d="M67.2256 42.6302C69.8051 49.9614 67.4735 58.4484 63.6326 63.8077C61.6684 66.5489 59.5801 68.4844 56.6929 70.2652C46.0275 76.8441 35.508 74.2888 26.6325 67.6861C23.5419 65.3868 17.1542 59.2787 14.6877 56.2359C14.239 55.6825 13.6617 54.9736 13.2637 54.5459C13.276 56.5073 14.0416 55.2027 14.174 56.9991C13.462 57.1692 13.1508 56.9556 12.7825 57.3319C12.0602 58.0685 13.0905 56.5971 12.1341 57.527C11.6152 57.406 11.7614 58.2879 11.3649 58.068C10.9814 57.8553 11.2339 58.3652 11.0331 58.179C10.1046 57.3186 9.66709 56.4413 8.60953 57.2653C10.4246 58.4838 12.5866 59.7968 14.1662 61.1465C22.4546 68.2287 31.5788 76.2267 41.6798 80.3878C47.2984 82.7022 49.9123 83.6058 56.5702 82.0268C66.7786 79.6051 73.8021 73.2499 78.8284 67.0655C85.8506 58.4248 88.3347 50.7152 87.9644 39.2049C86.2997 38.5698 77.9763 38.9699 75.5834 38.964L75.5885 40.6686L67.7865 40.6748L67.2256 42.6302ZM67.2256 42.6302L67.7865 40.6748L75.5885 40.6686L75.5834 38.964C77.9763 38.9699 86.2997 38.5698 87.9644 39.2049C87.7697 33.4733 85.7635 27.5524 83.4585 23.0482C82.2032 20.5954 80.9597 18.8268 79.3848 16.8874C78.5704 15.8845 75.518 12.2833 73.8707 12.1774C66.0056 11.6729 50.2954 18.0009 45.8314 25.0735C45.8815 25.1041 45.9615 25.0881 45.9865 25.1565L46.6789 25.4029C46.9896 25.4712 47.4385 25.5031 47.7729 25.5543C52.0726 26.2099 56.2009 28.3681 59.4023 31.0195C62.7356 33.7798 65.528 37.4715 67.2256 42.6302ZM11.4101 51.8215L15.158 56.7984C10.6505 58.6084 10.6609 58.615 10.6609 58.615L7.24072 56.5454L11.4101 51.8215Z" fill="#20CD8D"/>
<path fill-rule="evenodd" clip-rule="evenodd" d="M2.65404 27.5369C1.11657 34.1133 -0.710001 36.6102 0.281758 45.4037C0.53608 47.6595 1.3501 52.3269 2.14294 54.0881C2.63362 55.1789 3.41284 55.0038 5.44307 55.8986C6.7177 56.4603 7.80778 57.1184 9.02891 57.7322C10.5851 58.7572 10.8213 58.9962 11.3136 58.514C12.5126 58.6551 11.4369 58.1684 11.8202 58.3811C12.2167 58.601 12.1483 57.8866 12.6671 58.0076C14.0488 57.5415 12.6671 58.0077 14.0488 57.5416C15.7515 57.0558 14.696 57.2364 15.4081 57.0662C14.2382 55.6461 15.1071 56.7028 13.6831 55.0127C12.1675 52.2131 6.47794 46.2777 3.74299 38.8072C4.935 41.3079 11.1266 49.3295 13.1858 51.57L15.7702 54.5956C16.2212 55.1587 16.4833 55.4909 16.9997 56.0279L21.3634 60.196C22.4962 61.0582 23.2681 61.9866 24.4355 62.7023C22.891 61.3874 20.8638 56.1274 20.3596 53.171C18.7221 43.5716 23.1321 34.6802 30.9611 29.7231C36.7677 26.0462 34.8746 29.7417 37.0385 21.4695C36.0951 21.8223 36.1035 21.8297 35.8376 23.0474C35.6661 23.8325 35.6321 24.4289 35.4986 25.3017L35.2635 24.8039C34.7048 23.4615 34.9428 23.2802 34.7532 22.4295C34.4225 20.9448 33.8412 22.1512 33.7673 20.0143C33.6362 20.6978 33.6879 20.6786 33.4426 21.2173L31.4101 21.1914C30.9639 21.8853 31.1813 22.7889 30.997 22.2079C30.9854 22.1725 30.9563 22.3295 30.9227 22.3832H29.2173L29.202 23.8178L25.3236 23.828C25.3119 24.7135 25.4344 24.6904 25.0748 25.2781L13.8665 25.3072L13.633 26.2857L9.96773 26.2647L9.71737 27.7148L6.06894 27.7045C6.03321 27.7583 5.99407 27.8374 5.97459 27.8742L5.80045 28.205C5.08929 29.5942 6.11451 27.7931 5.58167 28.6548C5.26741 28.1172 5.39013 27.4424 5.09458 26.9992L4.32406 27.7016C3.6615 28.9602 4.68577 30.3997 3.14528 30.5986C2.92802 30.1788 3.09007 29.9746 3.1173 29.2854C3.15814 28.249 3.01916 27.9669 2.65404 27.5369ZM2.65404 27.5369C3.01916 27.9669 3.15814 28.249 3.1173 29.2854C3.09007 29.9746 2.92802 30.1788 3.14528 30.5986C4.68577 30.3997 3.6615 28.9602 4.32406 27.7016L5.09458 26.9992C5.39013 27.4424 5.26741 28.1172 5.58167 28.6548C6.11451 27.7931 5.08929 29.5942 5.80045 28.205L5.97459 27.8742C5.99407 27.8374 6.03321 27.7583 6.06894 27.7045L9.71737 27.7148L9.96773 26.2647L13.633 26.2857L13.8665 25.3072L25.0748 25.2781C25.4344 24.6904 25.3119 24.7135 25.3236 23.828L29.202 23.8178L29.2173 22.3832H30.9227C30.9563 22.3295 30.9854 22.1725 30.997 22.2079C31.1813 22.7889 30.9639 21.8853 31.4101 21.1914L33.4426 21.2173C33.6879 20.6786 33.6362 20.6978 33.7673 20.0143C33.8412 22.1512 34.4225 20.9448 34.7532 22.4295C34.9428 23.2802 34.7048 23.4615 35.2635 24.8039L35.4986 25.3017C35.6321 24.4289 35.6661 23.8325 35.8376 23.0474C36.1035 21.8297 36.0951 21.8223 37.0385 21.4695C38.9273 15.4102 42.3509 9.34697 46.3402 4.65668C46.9962 3.8854 50.4039 0.728788 50.5102 0.373684C37.7485 -0.969966 28.3921 1.33783 19.7904 6.84592C13.8733 10.6346 9.20136 15.3573 5.73427 21.3109C5.15812 22.2998 4.63094 23.3053 4.12608 24.3122C3.63937 25.283 3.05717 26.8883 2.65404 27.5369Z" fill="#20CD8D"/>
<path fill-rule="evenodd" clip-rule="evenodd" d="M37.7502 26.3179C38.849 26.2581 42.5007 25.9486 43.1644 25.5869C43.3088 25.508 45.925 22.6362 46.2261 22.323C48.202 20.2682 50.3869 18.6597 53.3229 16.7543C61.9443 11.159 70.6216 11.1594 72.1829 10.4333C71.8624 9.14826 68.5383 7.40677 67.3351 6.67746C62.7102 3.87558 60.2782 3.22719 55.3618 1.59481C52.9167 0.782683 52.6762 1.26637 49.8571 4.03233C44.6464 9.14542 38.5505 18.744 37.7502 26.3179Z" fill="#CDF3E5"/>
<path fill-rule="evenodd" clip-rule="evenodd" d="M3.13281 57.7378C5.71876 62.5769 5.22714 63.0285 9.0743 67.8549C16.6211 77.3225 27.4611 83.5336 41.064 83.8265C40.6705 83.2806 37.3321 81.5368 35.9605 80.6871C34.2343 79.6176 32.7591 78.7304 31.0306 77.5859C22.9965 72.267 23.2278 71.4394 17.7061 67.0269C13.6545 63.7899 8.55582 58.9003 3.13281 57.7378Z" fill="#CDF3E5"/>
</svg>
